# xmcd
#
# Track frame offsets:
#	150
#	17770
#	31860
#	48545
#	65137
#	79225
#	96312
#	110685
#	124302
#	147110
#	158352
#	188022
#	214667
#	237735
#	251230
#	268717
#
# Disc length: 3881 seconds
#
# Revision: 2
# Processed by: cddbd v1.5.1PL0 Copyright (c) Steve Scherf et al.
# Submitted via: audiograbber 1.83.01
#
DISCID=ea0f2710
DTITLE=Various Artist - Hit des Clubs 9
DYEAR=1997
DGENRE=Dance
TTITLE0=Gala - Everyone Has Inside
TTITLE1=Paradisio - Bailando
TTITLE2=DJ Lorenzo - Ritmo de la Noche
TTITLE3=Flip Da Scrip - You to Me
TTITLE4=DJ Chroma - Na Na Hey
TTITLE5=Kristine W - One More Try
TTITLE6=Rozlyne Clarke - I need you
TTITLE7=Lood - Shout N Out
TTITLE8=H2SO4 - Do It
TTITLE9=Sandy B - Make the World Go Round
TTITLE10=Chapter 9 - Swindle (cocaine)
TTITLE11=Deep Zone - It's gonna be All Right
TTITLE12=Hysteric Ego - Want Love
TTITLE13=Sex Alarm - Siren
TTITLE14=DJ Chus - Come Into the House
TTITLE15=Newton - Streamline
EXTD=Compilation dance
EXTT0=
EXTT1=
EXTT2=
EXTT3=
EXTT4=
EXTT5=
EXTT6=
EXTT7=
EXTT8=
EXTT9=
EXTT10=
EXTT11=
EXTT12=
EXTT13=
EXTT14=
EXTT15=
PLAYORDER=
